<svg width="256" height="256" viewBox="0 0 256 256" fill="none" xmlns="http://www.w3.org/2000/svg">
<path d="M213.285 204.795C208.549 195.658 201.126 189.702 193.776 185.605C186.421 181.503 179.011 179.154 174.044 177.291C170.135 175.833 165.223 173.565 161.539 171.152C159.689 169.958 158.158 168.708 157.25 167.681C157.233 167.659 157.224 167.639 157.203 167.617C159.263 167.617 162.034 167.617 165.47 167.617C173.2 167.617 184.098 167.617 196.765 167.617H201.625L200.546 162.876C198.709 154.814 198.133 146.478 198.133 136.471C198.129 121.489 199.433 102.84 199.438 76.445C199.476 49.853 188.958 30.4625 174.743 18.064C160.52 5.649 142.848 0.0215 128.002 0C113.157 0.0215 95.48 5.649 81.2655 18.06C67.0465 30.4545 56.5285 49.845 56.5625 76.428V76.432C56.5625 76.445 56.567 76.466 56.567 76.4705C56.567 102.866 57.8715 121.511 57.867 136.497C57.867 146.491 57.296 154.821 55.458 162.875L54.375 167.617H59.2355C77.492 167.617 92.0225 167.617 98.7415 167.617C98.6265 167.753 98.5285 167.88 98.3835 168.021C96.7975 169.662 93.941 171.624 90.884 173.278C87.8225 174.953 84.5355 176.382 82.033 177.264C75.284 179.661 64.352 182.948 54.9085 190.26C50.193 193.926 45.8395 198.65 42.6975 204.747C39.5555 210.835 37.6705 218.272 37.6705 227.161C37.6705 229.003 37.7515 230.909 37.918 232.878C38.029 234.136 38.506 235.15 39.052 235.973C40.101 237.508 41.457 238.617 43.141 239.755C46.091 241.708 50.133 243.588 55.3005 245.439C70.773 250.956 96.3285 255.995 128.002 255.999C153.732 255.999 175.451 252.662 190.97 248.462C198.734 246.356 204.937 244.058 209.44 241.738C211.696 240.57 213.533 239.419 215.004 238.131C215.742 237.487 216.394 236.801 216.948 235.974C217.498 235.151 217.976 234.136 218.087 232.878C218.249 230.913 218.33 229.015 218.33 227.178C218.334 218.284 216.441 210.87 213.285 204.795ZM165.713 185.212C162.818 188.525 158.214 192.2 151.946 195.014C145.666 197.836 137.715 199.823 128.002 199.827C115.05 199.823 105.222 196.293 98.345 191.958C94.9045 189.792 92.214 187.417 90.287 185.212C89.609 184.445 89.063 183.711 88.573 182.999C91.779 181.622 95.2755 179.862 98.422 177.82C100.677 176.345 102.745 174.758 104.416 172.93C105.251 172.009 105.985 171.023 106.56 169.894C107.136 168.76 107.545 167.451 107.545 166.001C107.545 162.3 107.545 157.666 107.545 151.322V149.833L106.552 148.73C104.007 145.912 100.217 142.248 96.7125 137.482C93.259 132.788 90.185 127.134 88.974 120.53V80.636H167.035V120.53C165.824 127.134 162.746 132.787 159.292 137.482C155.787 142.248 151.997 145.911 149.452 148.73L148.454 149.833V151.322C148.454 157.666 148.454 162.3 148.454 166.001C148.454 167.403 148.834 168.7 149.384 169.818C150.356 171.787 151.793 173.33 153.435 174.771C155.903 176.916 158.934 178.784 162.085 180.438C163.876 181.376 165.684 182.212 167.449 182.975C166.958 183.691 166.408 184.437 165.713 185.212Z" fill="white"/>
</svg>
